<svg xmlns="http://www.w3.org/2000/svg" viewBox="0 0 900 650"><rect width="900" height="650" fill="#e2c888"/><text x="85" y="92" font-family="sans-serif" font-size="15" letter-spacing="4" fill="#191d2a">THINK LIKE YOUR PEOPLE</text><g fill="#191d2a"><path d="m280 165 85 49v98l-85 49-85-49v-98Z"/><path d="m450 263 85 49v98l-85 49-85-49v-98Z"/><path d="m620 165 85 49v98l-85 49-85-49v-98Z"/></g><g fill="#faf5ec"><circle cx="260" cy="268" r="9"/><circle cx="300" cy="268" r="9"/><circle cx="430" cy="366" r="9"/><circle cx="470" cy="366" r="9"/><circle cx="600" cy="268" r="9"/><circle cx="640" cy="268" r="9"/></g><path d="M255 295q25 24 50 0m125 98q20 18 40 0m125-98q25 24 50 0" fill="none" stroke="#b4c7b5" stroke-width="6" stroke-linecap="round"/><text x="85" y="565" font-family="sans-serif" font-size="53" font-weight="700" fill="#191d2a">Stay in the hive.</text></svg>